<?xml version="1.0" encoding="iso-8859-1"?>
<!-- Generator: Adobe Illustrator 16.0.0, SVG Export Plug-In . SVG Version: 6.00 Build 0)  -->
<!DOCTYPE svg PUBLIC "-//W3C//DTD SVG 1.1//EN" "http://www.w3.org/Graphics/SVG/1.1/DTD/svg11.dtd">
<svg version="1.1" id="Capa_1" xmlns="http://www.w3.org/2000/svg" xmlns:xlink="http://www.w3.org/1999/xlink" x="0px" y="0px"
	 width="320.673px" height="320.672px" viewBox="0 0 320.673 320.672" style="enable-background:new 0 0 320.673 320.672;"
	 xml:space="preserve">
<g>
	<g id="Artwork_52_">
		<g>
			<path fill="#FADBD8" d="M26.083,205.497c1.492-0.148,3.098-0.232,4.839-0.232c10.601,0,16.289,3.05,20.86,5.5
				c3.675,1.97,6.103,3.271,11.864,3.271c5.759,0,8.187-1.301,11.86-3.271c4.571-2.45,10.259-5.5,20.859-5.5
				c10.6,0,16.288,3.05,20.859,5.5c3.674,1.971,6.101,3.271,11.86,3.271c5.761,0,8.189-1.302,11.864-3.271
				c4.57-2.45,10.259-5.5,20.86-5.5c10.6,0,16.289,3.05,20.859,5.5c3.676,1.97,6.103,3.271,11.864,3.271
				c5.763,0,8.19-1.302,11.865-3.271c4.57-2.45,10.261-5.5,20.859-5.5c10.603,0,16.291,3.05,20.861,5.5
				c3.676,1.97,6.104,3.271,11.864,3.271c5.763,0,8.189-1.302,11.865-3.271c4.572-2.451,10.262-5.5,20.865-5.5
				c0.791,0,1.096-0.002,1.834,0.031c0.529,0.023,2.008-0.232,2.008-2.545v-33.5c0-8.172-4.574-15.271-11.301-18.887
				c-0.975-0.523-2.844-1.239-4.408-0.622c-4.826,1.901-10.262,5.5-20.863,5.5s-16.291-3.05-20.86-5.5
				c-3.676-1.971-6.104-3.271-11.865-3.271c-5.76,0-8.188,1.301-11.863,3.271c-4.57,2.45-10.26,5.5-20.861,5.5
				s-16.291-3.05-20.86-5.5c-3.674-1.971-6.104-3.271-11.863-3.271c-5.761,0-8.189,1.301-11.863,3.271
				c-4.572,2.45-10.26,5.5-20.862,5.5c-10.6,0-16.289-3.05-20.859-5.5c-3.674-1.971-6.101-3.271-11.861-3.271
				c-5.759,0-8.186,1.301-11.86,3.271c-4.571,2.45-10.259,5.5-20.859,5.5c-10.602,0-16.158-3.314-20.862-5.5
				c-2.321-1.079-4.222-0.779-5.063-0.449c-7.968,3.125-13.609,10.881-13.609,19.958v33.615
				C24.112,205.756,25.402,205.565,26.083,205.497z"/>
			<path fill="#F5B7B1"  d="M317.153,228.639c-5.045-1.112-9.791-2.824-12.572-4.314c-3.676-1.97-6.104-3.271-11.865-3.271
				c-5.764,0-8.19,1.302-11.867,3.271c-4.571,2.451-10.262,5.502-20.862,5.502c-10.603,0-16.291-3.052-20.861-5.502
				c-3.676-1.97-6.104-3.271-11.865-3.271c-5.76,0-8.188,1.302-11.862,3.271c-4.57,2.45-10.261,5.502-20.861,5.502
				c-10.603,0-16.291-3.052-20.861-5.502c-3.674-1.97-6.104-3.271-11.863-3.271c-5.761,0-8.189,1.302-11.863,3.271
				c-4.572,2.45-10.26,5.502-20.862,5.502c-10.6,0-16.289-3.052-20.859-5.502c-3.674-1.971-6.101-3.271-11.861-3.271
				c-5.759,0-8.186,1.301-11.86,3.271c-4.571,2.45-10.259,5.502-20.859,5.502c-10.602,0-16.291-3.052-20.862-5.502
				c-3.674-1.97-6.102-3.271-11.862-3.271c-5.762,0-8.189,1.302-11.864,3.271c-3.965,2.127-6.294,4.7-14.42,5.346
				c-2.256,0-4.64,0.355-4.64,2.656c0,2.219,0,4.357,0,6.7v42.151c0,11.838,9.595,21.434,21.433,21.434h277.806
				c11.838,0,21.434-9.596,21.434-21.434v-42.152c0-3.507,0-2.686,0-6.535C320.671,229.254,318.317,228.896,317.153,228.639z"/>
			<path fill="#FDEDEC" d="M70.05,138.649c1.92-0.574,3.516-1.427,5.456-2.467c4.571-2.451,10.259-5.501,20.859-5.501
				c10.6,0,16.288,3.05,20.859,5.501c3.674,1.97,6.101,3.271,11.86,3.271c5.761,0,8.189-1.303,11.864-3.271
				c4.57-2.451,10.259-5.501,20.86-5.501c10.6,0,16.289,3.05,20.859,5.501c3.676,1.969,6.103,3.271,11.864,3.271
				c5.763,0,8.19-1.303,11.865-3.271c4.57-2.451,10.261-5.501,20.859-5.501c10.603,0,16.291,3.05,20.861,5.501
				c1.086,0.582,1.559,0.866,2.545,1.314c0.36,0.164,1.598,0.148,1.598-1.854v-24.493c0-8.448-6.848-15.297-15.297-15.297h-64.654
				c-1.266,0-1.049-0.603-0.6-0.919c12.025-8.43,29.021-23.741,34.143-31.526c3.631-5.525,6.196-11.574,5.77-19.553
				c-0.756-14.127-12.305-25.793-26.451-25.793c-13.918,0-22.75,15.517-24.835,15.517c-1.829,0-10.299-15.517-24.842-15.517
				c-14.145,0-25.695,11.666-26.451,25.793c-0.426,7.979,2.146,14.052,5.772,19.553c5.044,7.653,21.926,22.8,33.965,31.295
				c0.564,0.398,0.78,1.15-0.554,1.15H83.701c-8.449,0-15.297,6.849-15.297,15.297v25.186
				C68.407,138.878,69.531,138.803,70.05,138.649z"/>
		</g>
	</g>
</g>
<g>
</g>
<g>
</g>
<g>
</g>
<g>
</g>
<g>
</g>
<g>
</g>
<g>
</g>
<g>
</g>
<g>
</g>
<g>
</g>
<g>
</g>
<g>
</g>
<g>
</g>
<g>
</g>
<g>
</g>
</svg>
